<svg width="139" height="87" viewBox="0 0 139 87" fill="none" xmlns="http://www.w3.org/2000/svg">
<g id="Frame 1">
<path id="Vector" d="M74.3834 0.235712C73.932 0.304351 73.4972 1.98435 72.6267 2.8616C71.9865 3.49191 71.1922 3.45508 70.7681 4.23523C70.6066 4.52569 70.658 5.02458 70.4757 5.50339C70.1188 6.45932 68.8656 6.54386 68.8656 7.58685C68.8623 8.71271 69.9109 8.92784 70.8203 9.7264C71.5293 10.3676 71.5972 10.8112 72.4594 11.1235C73.1924 11.3754 74.2857 10.5501 75.268 10.8472C76.0755 11.09 76.8483 11.2649 77.0313 12.102C77.1912 12.8755 77.0197 14.0725 76.0416 13.9335C75.7128 13.8958 74.2799 13.4103 72.5232 13.5978C70.4012 13.8423 67.9835 14.5421 67.7442 16.9319C67.615 18.2662 69.2483 19.8415 70.8277 19.5218C71.9194 19.3041 71.4034 18.0033 71.9972 17.3713C72.775 16.5611 77.1912 20.1973 81.296 20.1973C83.0237 20.1973 84.3108 19.7562 85.5855 18.4043C85.7064 18.3013 85.8497 18.0803 86.0352 18.0661C86.21 18.0812 86.5115 18.2536 86.6117 18.3273C89.9164 21.0118 92.4169 26.3983 104.566 26.4611C106.274 26.472 108.219 27.2956 109.808 28.7597C111.226 30.0848 112.056 32.1465 112.862 34.2374C114.079 37.3731 116.256 40.4259 119.559 43.8202C119.741 44.0019 122.46 46.1397 122.677 46.2979C122.711 46.3214 122.911 46.8035 122.842 47.0731C122.76 49.1105 122.468 55.0302 126.836 55.2964C127.901 55.3517 127.622 54.5916 127.622 54.0718C127.621 53.0405 127.434 52.0151 127.972 50.9587C128.709 49.5089 126.412 48.8401 126.479 45.6994C126.528 43.3598 124.579 43.7583 123.596 41.9753C123.027 40.9415 122.521 40.3933 122.557 39.131C122.781 32.0192 121.059 27.3459 120.202 26.1982C119.531 25.3319 118.978 24.9887 119.593 24.5869C123.235 22.1535 124.063 19.8909 124.063 19.8909C126.001 15.2862 127.743 11.0808 130.149 9.23002C130.633 8.84748 131.874 7.90912 132.634 7.54332C134.88 6.47439 136.059 5.8265 136.711 5.18614C137.739 4.17245 138.557 2.05466 137.568 0.771435C136.339 -0.813136 134.214 0.444143 133.275 1.00665C126.574 5.02542 125.588 12.1154 123.266 16.1852C121.415 19.4389 118.404 21.8279 115.712 22.0238C113.695 22.1753 111.52 21.7626 109.354 20.8017C104.086 18.4671 101.204 15.4536 100.523 14.9212C99.1075 13.818 88.1199 2.91601 79.2196 2.47236C79.2196 2.47236 78.1147 0.236549 77.8364 0.199718C77.1862 0.115174 76.5195 1.53401 76.0424 1.69975C75.5918 1.84874 74.8365 0.162049 74.3834 0.235712ZM35.1956 65.2927C34.3574 65.2718 33.646 64.577 33.646 63.7182L33.6476 35.6554H24.4963V66.5885C24.4963 68.1053 25.7113 69.3416 27.2038 69.3416H43.199C44.6998 69.3416 45.9007 68.1044 45.9007 66.5885V35.6554H36.7569L36.7494 63.7182C36.7503 64.577 36.0371 65.2718 35.1956 65.2927ZM65.8334 35.6554H51.9851C51.5935 35.6561 51.2059 35.7348 50.8444 35.887C50.4829 36.0391 50.1547 36.2619 49.8784 36.5424C49.6022 36.8229 49.3834 37.1557 49.2345 37.5217C49.0856 37.8877 49.0096 38.2798 49.0108 38.6756V69.3416H58.1713V41.2136C58.1723 41.0093 58.2133 40.8073 58.2917 40.6191C58.3701 40.4309 58.4845 40.2601 58.6282 40.1166C58.772 39.9731 58.9424 39.8596 59.1296 39.7827C59.3168 39.7058 59.5172 39.6669 59.7193 39.6684C60.574 39.6684 61.2598 40.3347 61.2797 41.1893V69.3424H70.4004V41.1885C70.4136 40.3338 71.0978 39.6675 71.9517 39.6675C72.7973 39.6675 73.4964 40.3506 73.503 41.2127V69.3416H82.6643V38.6756C82.6651 38.2797 82.5888 37.8876 82.4397 37.5215C82.2905 37.1554 82.0715 36.8227 81.795 36.5422C81.5186 36.2617 81.1902 36.0391 80.8286 35.8869C80.467 35.7348 80.0792 35.6561 79.6875 35.6554H65.8334ZM18.3921 60.8772H9.14719V69.3416H0V35.6554H18.4501C20.1016 35.6554 21.3912 37.0123 21.3912 38.689V57.8394C21.3924 58.2381 21.3157 58.6332 21.1655 59.0018C21.0153 59.3705 20.7945 59.7055 20.5159 59.9878C20.2372 60.27 19.9062 60.4939 19.5417 60.6465C19.1773 60.7991 18.7866 60.8775 18.3921 60.8772ZM12.2506 41.2713C12.2535 41.0632 12.2157 40.8566 12.1394 40.6633C12.0631 40.47 11.9498 40.2938 11.806 40.1448C11.6622 39.9958 11.4907 39.8769 11.3013 39.795C11.112 39.7132 10.9086 39.6698 10.7026 39.6675H9.14719V56.7061H10.7026C11.5085 56.7061 12.2581 56.0582 12.2506 55.1232V41.2713ZM118.171 65.3488C118.171 67.6373 116.356 69.4981 114.109 69.4981C113.57 69.4988 113.036 69.3918 112.539 69.1834C112.041 68.9749 111.589 68.6691 111.209 68.2835C110.829 67.8979 110.527 67.4401 110.323 66.9364C110.118 66.4328 110.014 65.8932 110.016 65.3488C110.016 63.0937 111.841 61.2061 114.042 61.2061C116.353 61.2036 118.171 63.0351 118.171 65.3488ZM114.05 61.8088C112.21 61.8088 110.667 63.4135 110.667 65.3597C110.667 67.3126 112.21 68.9038 114.106 68.9038C115.987 68.9038 117.513 67.3126 117.513 65.3597C117.513 63.4101 115.987 61.8088 114.106 61.8088H114.05Z" fill="black"/>
<path id="Vector_2" d="M116.45 68.1582H115.363L113.964 66.2554V68.1582H113.076V63.3485H114.007C115.279 63.3485 115.953 63.8375 115.953 64.7758C115.953 65.4014 115.555 65.9544 115 66.1231L114.934 66.1467L116.45 68.1582ZM114.116 65.4747C114.749 65.4747 115.085 65.2463 115.085 64.7876C115.085 64.3796 114.76 64.1688 114.143 64.1688H113.961V65.4764L114.116 65.4747ZM98.5049 69.7626V61.2442H95.4039V69.7626H86.2949V38.8768C86.2949 37.1906 87.6237 35.835 89.2597 35.835H104.65C105.04 35.8353 105.427 35.9143 105.788 36.0674C106.148 36.2205 106.476 36.4448 106.751 36.7273C107.027 37.0098 107.245 37.3451 107.394 37.7139C107.542 38.0828 107.618 38.4779 107.617 38.8768V69.7626H98.5049ZM98.5049 57.0432V41.4203C98.4826 40.557 97.8 39.8927 96.9498 39.8927C96.5442 39.8919 96.1545 40.0544 95.8652 40.3448C95.5759 40.6353 95.4102 41.0304 95.4039 41.4447V57.0432H98.5049ZM1.07812 86.8727V77.5517H2.09583V78.4276C2.3352 78.0854 2.60675 77.8265 2.90967 77.6554C3.21094 77.4859 3.57741 77.3974 4.00827 77.3974C4.57201 77.3974 5.06807 77.5483 5.49892 77.8409C5.93143 78.1393 6.25581 78.5566 6.47454 79.0953C6.69574 79.6349 6.80469 80.2259 6.80469 80.8692C6.80469 81.558 6.68419 82.1801 6.44069 82.7324C6.19885 83.2837 5.84724 83.7061 5.38502 84.0012C4.95015 84.286 4.44481 84.4384 3.9282 84.4404C3.5543 84.4404 3.22167 84.3595 2.92535 84.2001C2.64285 84.0517 2.39422 83.8439 2.19571 83.5906V86.871L1.07812 86.8727ZM2.09006 80.9585C2.09006 81.8244 2.26174 82.4668 2.6051 82.8816C2.94846 83.2955 3.36694 83.5029 3.85392 83.5029C4.34998 83.5029 4.77671 83.2888 5.1308 82.8563C5.48489 82.428 5.66318 81.7628 5.66318 80.8624C5.66318 80.0025 5.48902 79.3618 5.144 78.9326C4.79816 78.506 4.38464 78.2919 3.90592 78.2919C3.42884 78.2919 3.00707 78.5195 2.63977 78.9739C2.27164 79.4309 2.09006 80.0935 2.09006 80.9585ZM18.8364 84.292V83.3014C18.3206 84.0635 17.6239 84.4429 16.7416 84.4429C16.3536 84.4429 15.9888 84.3671 15.6512 84.2145C15.3145 84.0627 15.0644 83.8696 14.901 83.6403C14.7267 83.387 14.6086 83.0978 14.5551 82.793C14.5106 82.5679 14.4874 82.213 14.4874 81.7249V77.5508H15.605V81.2882C15.605 81.8859 15.629 82.2872 15.6735 82.4946C15.7453 82.7956 15.8947 83.03 16.1209 83.2028C16.3503 83.3739 16.6318 83.4599 16.9669 83.4599C17.302 83.4599 17.6157 83.3722 17.9112 83.1969C18.2058 83.0224 18.413 82.7821 18.5343 82.4803C18.6573 82.1768 18.7192 81.7375 18.7192 81.1634V77.5542H19.8368V84.292H18.8364ZM27.9479 84.292V77.5542H28.9467V78.4976C29.154 78.1675 29.4382 77.895 29.7737 77.7043C30.1179 77.5028 30.5099 77.4008 30.9482 77.4008C31.436 77.4008 31.8372 77.5053 32.1483 77.7127C32.462 77.921 32.6832 78.2084 32.8103 78.5811C33.3344 77.7945 34.0129 77.4008 34.8482 77.4008C35.5036 77.4008 36.0062 77.5879 36.3587 77.9572C36.7103 78.3265 36.8869 78.8972 36.8869 79.6661V84.292H35.7759V80.0472C35.7759 79.5894 35.7396 79.2597 35.6678 79.0591C35.5923 78.8575 35.4536 78.687 35.2733 78.5743C35.0713 78.4482 34.8381 78.3838 34.6014 78.3889C34.1367 78.3889 33.7529 78.5474 33.4459 78.8627C33.1405 79.1771 32.9853 79.6821 32.9853 80.3751V84.292H31.8677V79.9148C31.8677 79.4056 31.7769 79.0245 31.5937 78.7716C31.4113 78.5187 31.1141 78.3914 30.699 78.3914C30.3853 78.3914 30.0948 78.4765 29.8273 78.6477C29.5599 78.8163 29.3651 79.0633 29.2463 79.3887C29.1258 79.7159 29.0655 80.1846 29.0655 80.7983V84.2937H27.9479V84.292ZM49.2092 83.4591C48.794 83.8191 48.3954 84.072 48.0132 84.2204C47.6185 84.3705 47.2004 84.4456 46.7792 84.4421C46.0537 84.4421 45.4982 84.2617 45.1086 83.9008C44.7207 83.5375 44.5251 83.0755 44.5251 82.5131C44.5251 82.181 44.5969 81.8809 44.7455 81.6077C44.8834 81.3449 45.0813 81.1199 45.3224 80.9518C45.5618 80.7882 45.8292 80.6618 46.128 80.5783C46.4551 80.4999 46.7868 80.4427 47.121 80.4072C48.0239 80.2967 48.69 80.1669 49.1159 80.0118C49.1201 79.8558 49.1225 79.7563 49.1225 79.715C49.1225 79.2496 49.0169 78.9217 48.8047 78.732C48.5208 78.4715 48.0949 78.3442 47.5328 78.3442C47.007 78.3442 46.6191 78.4369 46.3657 78.6258C46.1156 78.8146 45.9316 79.1476 45.8102 79.6265L44.7182 79.4722C44.8181 78.9976 44.9815 78.6097 45.2085 78.3172C45.4355 78.0213 45.7665 77.7953 46.1965 77.636C46.6265 77.4775 47.1251 77.3974 47.6938 77.3974C48.2575 77.3974 48.7131 77.4665 49.0656 77.6006C49.418 77.7372 49.6764 77.9049 49.8439 78.1106C50.0098 78.3163 50.1237 78.5752 50.1914 78.8896C50.2277 79.0836 50.2467 79.4343 50.2467 79.9418V81.4652C50.2467 82.5283 50.2698 83.2011 50.3185 83.4793C50.3656 83.7609 50.4605 84.0315 50.6008 84.2895H49.432C49.3087 84.0289 49.2332 83.7475 49.2092 83.4591ZM49.1151 80.908C48.7082 81.0791 48.0999 81.2216 47.2893 81.3413C46.8296 81.4087 46.5027 81.4846 46.3137 81.5698C46.133 81.6452 45.9793 81.7752 45.873 81.9424C45.7698 82.1034 45.7161 82.283 45.7161 82.4837C45.7161 82.7888 45.8309 83.0426 46.0554 83.2458C46.2791 83.4473 46.6109 83.5476 47.0458 83.5476C47.4759 83.5476 47.8597 83.454 48.1948 83.2601C48.5165 83.0824 48.7752 82.8057 48.9343 82.4693C49.0557 82.2122 49.1143 81.8303 49.1143 81.3278L49.1151 80.908ZM58.655 84.292V82.9895H59.9294V84.292H58.655ZM72.5389 81.8218L73.6358 81.9702C73.5153 82.7425 73.2091 83.3503 72.7147 83.7862C72.2203 84.2246 71.612 84.4421 70.8914 84.4421C69.9893 84.4421 69.2621 84.1411 68.714 83.5392C68.1643 82.9372 67.8886 82.0739 67.8886 80.9467C67.8886 80.22 68.0091 79.5826 68.2444 79.0363C68.4813 78.4909 68.8411 78.0811 69.3248 77.8088C69.8057 77.5357 70.3478 77.3945 70.898 77.3991C71.6136 77.3991 72.2021 77.5854 72.6553 77.9555C73.1117 78.3256 73.4031 78.8509 73.5327 79.5329L72.4456 79.7032C72.3408 79.2513 72.1576 78.9107 71.8959 78.6814C71.6334 78.4529 71.3157 78.3391 70.9418 78.3391C70.3772 78.3391 69.9199 78.5448 69.5683 78.9579C69.2167 79.3693 69.0392 80.0219 69.0392 80.9138C69.0392 81.8185 69.2101 82.4769 69.5501 82.8883C69.8902 83.2972 70.3326 83.5029 70.879 83.5029C71.3165 83.5029 71.6846 83.3647 71.9784 83.0898C72.2723 82.8167 72.4588 82.3934 72.5389 81.8218ZM80.5345 80.9206C80.5345 79.6729 80.8729 78.7472 81.5546 78.1477C82.1217 77.6503 82.8117 77.3974 83.628 77.3974C84.5368 77.3974 85.2772 77.7009 85.8525 78.3096C86.4278 78.9166 86.715 79.7538 86.715 80.8236C86.715 81.692 86.5879 82.3741 86.3328 82.8706C86.0847 83.3619 85.6976 83.7655 85.2219 84.029C84.7338 84.304 84.1846 84.4457 83.6272 84.4404C82.7052 84.4404 81.9591 84.1394 81.3879 83.5333C80.8192 82.9305 80.5345 82.0604 80.5345 80.9206ZM81.6859 80.9206C81.6859 81.7831 81.8699 82.4288 82.2389 82.8588C82.607 83.2905 83.0725 83.5046 83.6305 83.5046C84.1868 83.5046 84.6474 83.2879 85.0172 82.8571C85.3845 82.4255 85.5685 81.767 85.5685 80.8827C85.5685 80.0497 85.3845 79.4174 85.0139 78.9874C84.6416 78.5583 84.1819 78.3442 83.6305 78.3442C83.0725 78.3442 82.6087 78.5583 82.2389 78.9858C81.8675 79.4123 81.6859 80.059 81.6859 80.9206ZM94.387 84.292V77.5542H95.3849V78.4976C95.5923 78.1675 95.8764 77.895 96.212 77.7043C96.5553 77.5028 96.9498 77.4008 97.3873 77.4008C97.8751 77.4008 98.2754 77.5053 98.5866 77.7127C98.9011 77.921 99.1215 78.2084 99.2502 78.5811C99.7743 77.7945 100.453 77.4008 101.289 77.4008C101.943 77.4008 102.445 77.5879 102.797 77.9572C103.151 78.3265 103.327 78.8972 103.327 79.6661V84.292H102.215V80.0472C102.215 79.5894 102.178 79.2597 102.107 79.0591C102.033 78.8601 101.901 78.6966 101.712 78.5743C101.51 78.4482 101.277 78.3839 101.04 78.3889C100.577 78.3889 100.194 78.5474 99.8858 78.8627C99.5812 79.1771 99.4252 79.6821 99.4252 80.3751V84.292H98.3076V79.9148C98.3076 79.4056 98.2168 79.0245 98.0336 78.7716C97.8512 78.5187 97.5549 78.3914 97.1389 78.3914C96.8244 78.3914 96.5355 78.4765 96.2664 78.6477C96.0006 78.8163 95.805 79.0633 95.6862 79.3887C95.5657 79.7159 95.5054 80.1846 95.5054 80.7983V84.2937H94.387V84.292Z" fill="black"/>
</g>
</svg>
